<svg width="68" height="72" viewBox="0 0 68 72" fill="none" xmlns="http://www.w3.org/2000/svg">
<path d="M31.7451 4.10931C32.8411 3.21327 34.4145 3.2049 35.5195 4.08978L64.8027 27.5419C65.5136 28.1113 65.9277 28.973 65.9277 29.8837V66.9999C65.9277 68.6567 64.5844 69.9998 62.9277 69.9999H5C3.34315 69.9999 2 68.6568 2 66.9999V29.8525C2 28.9525 2.40403 28.1 3.10059 27.5302L31.7451 4.10931Z" stroke="#E67E50" stroke-width="4"/>
<path d="M23.3937 53.2021C23.3937 53.2021 26.0151 48.2694 34.316 48.2694C42.617 48.2694 45.2383 53.2021 45.2383 53.2021" stroke="#E67E50" stroke-width="4" stroke-linecap="round"/>
<path d="M14.2331 43.3368C14.2331 43.3368 18.9684 34.1762 33.9637 34.1762C48.959 34.1762 53.6943 43.3368 53.6943 43.3368" stroke="#E67E50" stroke-width="4" stroke-linecap="round"/>
</svg>
