<svg width="50" height="68" viewBox="0 0 50 68" fill="none" xmlns="http://www.w3.org/2000/svg">
<rect x="2" y="19.4763" width="46" height="46" rx="3" stroke="#E67E50" stroke-width="4"/>
<line x1="24.619" y1="17.4763" x2="24.619" y2="67.4763" stroke="#E67E50" stroke-width="4"/>
<line x1="50" y1="43.2857" y2="43.2857" stroke="#E67E50" stroke-width="4"/>
<path d="M30.6391 8.28776C28.1676 11.6729 26.1905 17.4762 26.1905 17.4762C26.1905 17.4762 37.5592 16.9925 41.5136 11.6729C43.6708 8.77097 45.4362 5.12123 42.5022 2.96823C38.5478 0.066577 33.6012 4.23052 30.6391 8.28776Z" stroke="#E67E50" stroke-width="4"/>
<path d="M19.3609 8.28776C21.8324 11.6729 23.8095 17.4762 23.8095 17.4762C23.8095 17.4762 12.4408 16.9925 8.48643 11.6729C6.32923 8.77097 4.56376 5.12123 7.49785 2.96823C11.4522 0.066577 16.3988 4.23052 19.3609 8.28776Z" stroke="#E67E50" stroke-width="4"/>
</svg>
