<svg width="34" height="43" viewBox="0 0 34 43" fill="none" xmlns="http://www.w3.org/2000/svg">
<path d="M18.0883 1.80469H18.0893V1.80566C18.0902 1.80644 18.092 1.80781 18.0942 1.80957C18.0984 1.81313 18.1058 1.8188 18.1147 1.82617C18.1325 1.84105 18.1595 1.8634 18.1947 1.89258C18.2661 1.95165 18.3721 2.03923 18.5072 2.14941C18.7778 2.3699 19.1662 2.68223 19.6322 3.04785C20.5677 3.78172 21.8046 4.71907 23.0365 5.55469C24.2583 6.38337 26.2177 6.89587 28.0473 7.18359C28.9301 7.32241 29.7263 7.4008 30.3012 7.44434C30.5878 7.46604 30.8182 7.47892 30.974 7.48633C31.0513 7.49 31.1103 7.4918 31.1488 7.49316C31.1677 7.49383 31.1822 7.49485 31.1908 7.49512H31.2006L32.5014 7.52734L32.6537 8.82031V8.82617C32.6541 8.82931 32.6551 8.83352 32.6557 8.83887C32.6569 8.84987 32.6583 8.86561 32.6606 8.88574C32.665 8.92612 32.6713 8.98495 32.6791 9.06055C32.6948 9.21174 32.7169 9.43141 32.7416 9.71191C32.791 10.273 32.8523 11.0782 32.9028 12.0654C33.0036 14.0374 33.0609 16.7503 32.8822 19.7012C32.704 22.6455 32.289 25.8703 31.4281 28.8516C30.5716 31.8179 29.2393 34.6623 27.1469 36.7236C25.5078 38.3383 23.098 39.762 21.1996 40.752C20.2319 41.2566 19.36 41.6675 18.7299 41.9521C18.4147 42.0945 18.1586 42.2058 17.9799 42.2822C17.8908 42.3203 17.8205 42.3498 17.7719 42.3701C17.7477 42.3802 17.7285 42.389 17.7153 42.3945C17.7089 42.3972 17.7034 42.3989 17.6996 42.4004C17.6978 42.4011 17.6959 42.4019 17.6947 42.4023L17.6928 42.4033L17.1254 41.0146L17.6918 42.4033L17.0824 42.6523L16.4867 42.3721L17.1254 41.0146L16.4858 42.3721V42.3711H16.4838C16.4828 42.3706 16.4815 42.3699 16.4799 42.3691C16.4765 42.3675 16.4713 42.3652 16.4653 42.3623C16.4531 42.3565 16.4356 42.3475 16.4135 42.3369C16.369 42.3156 16.3047 42.285 16.2231 42.2451C16.059 42.1649 15.8237 42.0476 15.5336 41.8994C14.9541 41.6033 14.1516 41.1801 13.2592 40.667C11.5056 39.6588 9.28365 38.2394 7.75041 36.7207C5.66461 34.6546 4.25282 31.823 3.28263 28.8633C2.3076 25.8887 1.74332 22.6748 1.41935 19.7393C1.09482 16.7984 1.00708 14.0981 1.00041 12.1348C0.997071 11.152 1.01477 10.3503 1.03263 9.79199C1.04157 9.51286 1.05 9.2939 1.05705 9.14355C1.06057 9.06838 1.06368 9.00984 1.06584 8.96973C1.0669 8.95002 1.06815 8.9347 1.06877 8.92383C1.06908 8.91836 1.06956 8.9133 1.06974 8.91016V8.90527C1.07145 8.90495 1.12087 8.90803 2.56681 8.99512L1.06974 8.9043L1.1547 7.5L2.56095 7.49512H2.5717C2.58089 7.49503 2.59615 7.49444 2.61662 7.49414C2.65761 7.49354 2.7206 7.49247 2.80314 7.49023C2.9687 7.48574 3.21291 7.47707 3.51701 7.45996C4.12709 7.42562 4.97186 7.35814 5.90763 7.22656C7.84641 6.95393 9.92059 6.43807 11.2094 5.55762C12.4414 4.7158 13.6805 3.77648 14.6176 3.04297C15.0846 2.6774 15.4742 2.36563 15.7455 2.14551C15.881 2.03562 15.9873 1.94861 16.059 1.88965C16.0947 1.8603 16.1221 1.83812 16.1401 1.82324C16.1488 1.81599 16.1553 1.81023 16.1596 1.80664C16.1616 1.80499 16.1635 1.80355 16.1645 1.80273L16.1654 1.80176L17.1283 1L18.0883 1.80469ZM16.4672 5.40527C15.5043 6.15904 14.2084 7.1414 12.9018 8.03418C11.0044 9.3305 8.33452 9.91477 6.3256 10.1973C5.44894 10.3205 4.6488 10.3905 4.01701 10.4326C4.00675 10.8966 3.99818 11.4673 4.00041 12.124C4.00682 14.0135 4.09201 16.6031 4.40178 19.4102C4.7122 22.223 5.24435 25.217 6.13322 27.9287C7.02691 30.6551 8.24606 32.9895 9.86174 34.5898C11.1048 35.821 13.0427 37.0814 14.7543 38.0654C15.5944 38.5484 16.3514 38.9494 16.8979 39.2285C16.9938 39.2775 17.0844 39.3211 17.1664 39.3623C17.2655 39.3186 17.3765 39.2715 17.4955 39.2178C18.087 38.9506 18.9058 38.5653 19.8119 38.0928C21.662 37.128 23.737 35.8719 25.0414 34.5869C26.6234 33.0285 27.7624 30.7305 28.5453 28.0195C29.3239 25.3235 29.7167 22.3352 29.8871 19.5195C30.0572 16.7103 30.0036 14.1143 29.9067 12.2188C29.8702 11.5067 29.8261 10.8956 29.7875 10.4111C29.1869 10.3601 28.4209 10.2786 27.5805 10.1465C25.6823 9.84795 23.1572 9.2609 21.3529 8.03711C20.0409 7.14717 18.7428 6.16379 17.7797 5.4082C17.5381 5.21867 17.3188 5.04006 17.1225 4.88281C16.9266 5.03915 16.708 5.2168 16.4672 5.40527Z" fill="#B7B7B7"/>
<path d="M17.1342 41.2959L16.5131 42.6553L17.0932 42.9209L17.0913 42.9219L16.5092 42.6553V42.6533L16.5122 42.6553L17.1342 41.2959ZM17.687 42.6855L17.6889 42.6846V42.6836L17.6899 42.6855L17.0952 42.9219L17.0932 42.9209L17.686 42.6855L17.1342 41.2959L17.687 42.6855ZM33.5444 8.04688C33.5448 8.05014 33.5457 8.0549 33.5463 8.06055C33.5477 8.07187 33.5499 8.08784 33.5522 8.1084C33.5569 8.15008 33.5634 8.21099 33.5717 8.28906C33.5883 8.44518 33.6109 8.67229 33.6372 8.96191C33.6896 9.54139 33.7554 10.373 33.809 11.3926C33.9162 13.4291 33.9764 16.23 33.7866 19.2773C33.5972 22.3182 33.1561 25.6486 32.2416 28.7266C31.3312 31.7909 29.918 34.7213 27.7055 36.8398C25.973 38.4987 23.4221 39.9643 21.4077 40.9854C20.3817 41.5053 19.4576 41.9284 18.7895 42.2217C18.4552 42.3685 18.1829 42.4828 17.9936 42.5615C17.8993 42.6007 17.8252 42.6315 17.7739 42.6523C17.7484 42.6627 17.7283 42.6711 17.7143 42.6768C17.7076 42.6794 17.7016 42.6811 17.6977 42.6826C17.696 42.6833 17.694 42.6841 17.6928 42.6846L17.6909 42.6855L17.6899 42.6836C17.6909 42.6832 17.6925 42.6831 17.6938 42.6826C17.6976 42.6811 17.7038 42.6794 17.7104 42.6768C17.7243 42.6712 17.7446 42.6626 17.77 42.6523C17.8212 42.6315 17.8955 42.6007 17.9897 42.5615C18.1789 42.4829 18.4513 42.3684 18.7856 42.2217C19.4536 41.9284 20.3779 41.5053 21.4038 40.9854C23.4182 39.9643 25.969 38.4987 27.7016 36.8398C29.9141 34.7214 31.3273 31.7908 32.2377 28.7266C33.1521 25.6488 33.5932 22.3181 33.7827 19.2773C33.9724 16.2303 33.9122 13.429 33.8051 11.3926C33.7515 10.3734 33.6857 9.54128 33.6332 8.96191C33.6071 8.67277 33.5844 8.44508 33.5678 8.28906C33.5596 8.21148 33.553 8.14998 33.5483 8.1084C33.546 8.08831 33.5437 8.07175 33.5424 8.06055C33.5418 8.05532 33.5409 8.05003 33.5405 8.04688V8.04102C33.5439 8.04064 33.5443 8.04096 33.5444 8.04102V8.04688ZM0.169378 8.12891V8.13379C0.169183 8.13702 0.168732 8.14184 0.168401 8.14746C0.167741 8.15872 0.166604 8.17484 0.165471 8.19531C0.163185 8.23668 0.160415 8.29662 0.156682 8.37402C0.149196 8.52927 0.13981 8.7556 0.130315 9.04395C0.111336 9.62046 0.0925932 10.448 0.0961354 11.4629C0.10322 13.4907 0.196566 16.2799 0.541448 19.3174C0.885684 22.3492 1.48532 25.6675 2.52094 28.7383C3.55204 31.7955 5.04991 34.7128 7.25629 36.8369C8.87766 38.3978 11.2302 39.8585 13.0913 40.8984C14.0377 41.4273 14.8888 41.8648 15.5034 42.1699C15.8109 42.3226 16.061 42.4428 16.2348 42.5254C16.3215 42.5666 16.39 42.5982 16.437 42.6201C16.4603 42.631 16.4789 42.6396 16.4916 42.6455C16.4978 42.6483 16.5028 42.6507 16.5063 42.6523L16.5082 42.6533V42.6553L16.5024 42.6523C16.4989 42.6507 16.4936 42.6482 16.4877 42.6455C16.475 42.6396 16.4562 42.6309 16.433 42.6201C16.386 42.5982 16.3174 42.5665 16.2309 42.5254C16.0571 42.4428 15.8068 42.3225 15.4995 42.1699C14.8849 41.8648 14.0336 41.4272 13.0873 40.8984C11.2263 39.8585 8.8736 38.3976 7.25239 36.8369C5.04632 34.7129 3.54806 31.7952 2.51703 28.7383C1.48157 25.6678 0.881765 22.3489 0.537542 19.3174C0.19273 16.2803 0.0993247 13.4906 0.0922292 11.4629C0.0886947 10.4484 0.107437 9.62036 0.126409 9.04395C0.13589 8.75606 0.145297 8.52918 0.152776 8.37402C0.156487 8.29708 0.159288 8.23659 0.161565 8.19531C0.162676 8.17528 0.163835 8.15863 0.164495 8.14746C0.16481 8.14223 0.165269 8.13693 0.165471 8.13379V8.12891C0.165521 8.12886 0.16636 8.12877 0.169378 8.12891ZM17.9028 4.49023C18.9253 5.26994 20.3033 6.28478 21.6948 7.20215C23.5912 8.45216 26.2529 9.05471 28.2651 9.3623C29.1914 9.50388 30.0323 9.58964 30.6791 9.6416C30.721 10.1482 30.7693 10.7945 30.809 11.5498C30.912 13.5076 30.9692 16.1895 30.7885 19.0908C30.6074 21.9989 30.1894 25.0863 29.3618 27.8721C28.5301 30.6712 27.3183 33.0529 25.6264 34.6729C24.2311 36.0087 22.0159 37.3108 20.0473 38.3086C19.0819 38.7979 18.2096 39.198 17.5795 39.4746C17.4301 39.5402 17.293 39.5963 17.1733 39.6475C17.0717 39.598 16.9568 39.5437 16.8334 39.4824C16.2516 39.1935 15.4454 38.7789 14.5512 38.2793C12.7302 37.2617 10.6621 35.9548 9.33344 34.6758C7.60679 33.0133 6.30926 30.5944 5.35981 27.7793C4.41491 24.9774 3.84789 21.8836 3.51801 18.9785C3.18888 16.0794 3.09906 13.4036 3.09223 11.4521C3.0898 10.7538 3.10033 10.1488 3.11176 9.66211C3.79271 9.61956 4.67174 9.54613 5.63813 9.41406C7.76776 9.12299 10.5814 8.52329 12.5756 7.19922C13.9616 6.2788 15.3373 5.26523 16.3598 4.4873C16.6465 4.26918 16.9044 4.06529 17.1303 3.88965C17.3566 4.06619 17.6154 4.27107 17.9028 4.49023ZM27.6157 13.874C26.9757 13.3487 26.0301 13.4413 25.5043 14.0811L16.0346 25.6045L11.1254 20.9043C10.527 20.3321 9.57801 20.3531 9.00532 20.9512C8.43265 21.5494 8.45335 22.4983 9.05121 23.0713L15.1284 28.8906L16.2973 30.0098L17.3247 28.7598L27.8227 15.9854C28.3483 15.3454 28.2555 14.3999 27.6157 13.874ZM0.750432 8.16406L1.66352 8.2207C0.363643 8.14015 0.192047 8.1299 0.169378 8.12891C0.172753 8.1288 0.215144 8.13136 0.750432 8.16406ZM32.0903 6.7207L33.3881 6.75195L33.5434 8.04102H33.5405C33.5332 8.04152 33.4329 8.05372 32.0502 8.2207L33.5395 8.04102L33.3842 6.75195L32.0864 6.7207H32.0903ZM1.66157 6.7207L0.256292 6.72559L0.169378 8.12793L1.66645 8.21973C1.26147 8.19463 0.965971 8.17723 0.750432 8.16406L0.165471 8.12793L0.252385 6.72559L1.65766 6.7207H1.66157ZM18.0844 0.818359L18.0854 0.819336C18.0864 0.820149 18.0882 0.821533 18.0903 0.823242C18.0949 0.826966 18.1023 0.833184 18.1118 0.84082C18.1309 0.856277 18.1599 0.879798 18.1977 0.910156C18.2737 0.971251 18.3862 1.06113 18.5297 1.1748C18.8175 1.40281 19.2303 1.72647 19.726 2.10449C20.7208 2.86305 22.0374 3.8325 23.3491 4.69727C24.6683 5.56688 26.7733 6.09959 28.7221 6.39746C29.6643 6.54145 30.5139 6.6228 31.1274 6.66797C31.4333 6.69049 31.6794 6.70421 31.8461 6.71191C31.9293 6.71575 31.9932 6.71732 32.0346 6.71875C32.0549 6.71945 32.0701 6.72043 32.0795 6.7207H32.0756C32.0662 6.72041 32.0507 6.71944 32.0307 6.71875C31.9892 6.71732 31.9252 6.71575 31.8422 6.71191C31.6754 6.7042 31.4292 6.69047 31.1235 6.66797C30.51 6.62279 29.6602 6.54143 28.7182 6.39746C26.7695 6.09956 24.6642 5.56684 23.3452 4.69727C22.0336 3.83257 20.7168 2.86296 19.7221 2.10449C19.2265 1.7266 18.8135 1.40273 18.5258 1.1748C18.3825 1.06129 18.2697 0.971182 18.1938 0.910156C18.1562 0.879959 18.1269 0.856211 18.1079 0.84082C18.0986 0.833337 18.0909 0.826898 18.0864 0.823242C18.0845 0.821691 18.0824 0.820086 18.0815 0.819336L18.0805 0.818359L17.1372 0.0498047L17.1401 0.0488281L18.0844 0.818359ZM4.8725 6.48633C4.34326 6.55194 3.84855 6.60017 3.41254 6.63379C3.84846 6.60022 4.34318 6.55189 4.8725 6.48633ZM5.23578 6.44238C5.11327 6.45913 4.99181 6.47155 4.8725 6.48633C4.99057 6.47169 5.11068 6.45895 5.23188 6.44238C5.38865 6.42096 5.54632 6.3955 5.70453 6.37109C5.54748 6.3953 5.39141 6.42111 5.23578 6.44238ZM6.94282 6.15039C6.53187 6.23559 6.11638 6.30755 5.70453 6.37109C6.11638 6.3076 6.53184 6.23552 6.94282 6.15039ZM8.2768 5.8252C7.84418 5.94812 7.39625 6.05646 6.94282 6.15039C7.39624 6.05638 7.84424 5.94822 8.2768 5.8252ZM8.49653 5.76172C8.42383 5.78355 8.35045 5.80425 8.2768 5.8252C8.35046 5.80427 8.42382 5.78354 8.49653 5.76172ZM17.1372 0.0498047L16.1928 0.81543L16.1918 0.816406C16.1908 0.817223 16.189 0.818652 16.187 0.820312C16.1824 0.824015 16.1749 0.830274 16.1655 0.837891C16.1463 0.853321 16.1174 0.876947 16.0795 0.907227C16.0032 0.968245 15.8897 1.05822 15.7455 1.17188C15.457 1.39939 15.0436 1.72197 14.5473 2.09961C13.5509 2.85774 12.2319 3.82917 10.9204 4.7002C10.2639 5.13616 9.42063 5.4844 8.49653 5.76172C9.41927 5.48457 10.2607 5.13557 10.9164 4.7002C12.2279 3.82923 13.5469 2.85774 14.5434 2.09961C15.0396 1.72206 15.4531 1.3994 15.7416 1.17188C15.8856 1.05832 15.9993 0.968268 16.0756 0.907227C16.1134 0.877053 16.1424 0.853351 16.1616 0.837891C16.1709 0.830389 16.1784 0.824066 16.183 0.820312C16.185 0.818756 16.1869 0.817256 16.1879 0.816406L16.1889 0.81543L17.1362 0.0488281L17.1372 0.0498047ZM1.71723 6.71973C1.76121 6.7191 1.82939 6.71814 1.91742 6.71582C2.09443 6.71115 2.35574 6.70133 2.68012 6.68359C2.89801 6.67167 3.14425 6.65448 3.41254 6.63379C3.14561 6.65434 2.90097 6.67172 2.68403 6.68359C2.35955 6.70134 2.09844 6.71114 1.92133 6.71582C1.8332 6.71814 1.76522 6.7191 1.72114 6.71973C1.69953 6.72004 1.68329 6.72061 1.67328 6.7207H1.66938C1.67928 6.72062 1.69571 6.72004 1.71723 6.71973Z" fill="#B7B7B7"/>
</svg>
