<svg width="80" height="73" viewBox="0 0 80 73" fill="none" xmlns="http://www.w3.org/2000/svg">
<path d="M42.7151 0.0117188C63.0572 0.510123 79.3889 16.6074 79.3889 36.3916L79.3772 37.3311C78.8615 56.9949 62.2096 72.782 41.7434 72.7822L40.7717 72.7705C33.088 72.5824 25.9781 70.1662 20.1028 66.1689C19.7403 66.4875 19.2906 66.7257 18.7668 66.8408L3.64966 70.165C1.28561 70.6847 -0.688389 68.3348 0.230713 66.0957L6.1106 51.7764C6.32295 51.2595 6.65232 50.844 7.05005 50.5381C5.26887 46.4613 4.23222 42.0062 4.10962 37.3311L4.09692 36.3916C4.09692 16.2932 20.952 0 41.7434 0L42.7151 0.0117188ZM41.7434 6C24.0724 6 10.0969 19.7971 10.0969 36.3916C10.0971 52.986 24.0725 66.7822 41.7434 66.7822C59.4142 66.782 73.3887 52.9859 73.3889 36.3916C73.3889 19.7972 59.4143 6.00021 41.7434 6ZM7.95728 63.0752L12.637 62.0449L9.77759 58.6416L7.95728 63.0752Z" fill="#E67E50"/>
<path d="M32.0002 23.7996C32.0002 23.7996 32.7899 19.2662 34.7641 17.7119C36.9003 16.03 38.3572 15.3677 41.0815 15.1214C44.5035 14.812 47.5092 14.9454 49.8996 17.3233C51.7102 19.1246 52.4204 20.9043 52.7951 23.411C53.3566 27.1673 52.8554 29.6893 50.1628 32.2188C47.2673 34.9388 41.0815 34.0834 41.0815 37.7884C41.0815 43.099 41.0815 51 41.0815 51" stroke="#E67E50" stroke-width="6" stroke-linecap="round"/>
<circle cx="41.5" cy="60.5" r="3.5" fill="#E67E50"/>
</svg>
